<svg id="visual" viewBox="0 0 960 540" width="960" height="540" xmlns="http://www.w3.org/2000/svg" xmlns:xlink="http://www.w3.org/1999/xlink" version="1.1">
<rect x="0" y="0" width="960" height="540" fill="#001220"></rect>
  <path d="M0 220L22.8 236.3C45.7 252.7 91.3 285.3 137 290.3C182.7 295.3 228.3 272.7 274 275.7C319.7 278.7 365.3 307.3 411.2 323C457 338.7 503 341.3 548.8 329.2C594.7 317 640.3 290 686 268C731.7 246 777.3 229 823 248.2C868.7 267.3 914.3 322.7 937.2 350.3L960 378L960 541L937.2 541C914.3 541 868.7 541 823 541C777.3 541 731.7 541 686 541C640.3 541 594.7 541 548.8 541C503 541 457 541 411.2 541C365.3 541 319.7 541 274 541C228.3 541 182.7 541 137 541C91.3 541 45.7 541 22.8 541L0 541Z" fill="#eee"></path>
  <path d="M0 443L22.8 440.8C45.7 438.7 91.3 434.3 137 412.5C182.7 390.7 228.3 351.3 274 344.2C319.7 337 365.3 362 411.2 365.8C457 369.7 503 352.3 548.8 344.5C594.7 336.7 640.3 338.3 686 342.2C731.7 346 777.3 352 823 341.8C868.7 331.7 914.3 305.3 937.2 292.2L960 279L960 541L937.2 541C914.3 541 868.7 541 823 541C777.3 541 731.7 541 686 541C640.3 541 594.7 541 548.8 541C503 541 457 541 411.2 541C365.3 541 319.7 541 274 541C228.3 541 182.7 541 137 541C91.3 541 45.7 541 22.8 541L0 541Z" fill="#e34c67"></path>
  <path d="M0 493L22.8 486.8C45.7 480.7 91.3 468.3 137 459.3C182.7 450.3 228.3 444.7 274 452.3C319.7 460 365.3 481 411.2 470.3C457 459.7 503 417.3 548.8 405.2C594.7 393 640.3 411 686 423.5C731.7 436 777.3 443 823 433.5C868.7 424 914.3 398 937.2 385L960 372L960 541L937.2 541C914.3 541 868.7 541 823 541C777.3 541 731.7 541 686 541C640.3 541 594.7 541 548.8 541C503 541 457 541 411.2 541C365.3 541 319.7 541 274 541C228.3 541 182.7 541 137 541C91.3 541 45.7 541 22.8 541L0 541Z" fill="#c62368"></path>
</svg>
