<svg id="visual" viewBox="0 0 960 540" width="960" height="540" xmlns="http://www.w3.org/2000/svg" xmlns:xlink="http://www.w3.org/1999/xlink" version="1.1"><rect x="0" y="0" width="960" height="540" fill="#ffffff"></rect><path d="M0 383L22.8 372.3C45.7 361.7 91.3 340.3 137 349.2C182.7 358 228.3 397 274 413.5C319.7 430 365.3 424 411.2 404C457 384 503 350 548.8 332.3C594.7 314.7 640.3 313.3 686 328.5C731.7 343.7 777.3 375.3 823 395.3C868.7 415.3 914.3 423.7 937.2 427.8L960 432L960 541L937.2 541C914.3 541 868.7 541 823 541C777.3 541 731.7 541 686 541C640.3 541 594.7 541 548.8 541C503 541 457 541 411.2 541C365.3 541 319.7 541 274 541C228.3 541 182.7 541 137 541C91.3 541 45.7 541 22.8 541L0 541Z" fill="#fafafa"></path><path d="M0 354L22.8 374.8C45.7 395.7 91.3 437.3 137 444.3C182.7 451.3 228.3 423.7 274 414.8C319.7 406 365.3 416 411.2 432.3C457 448.7 503 471.3 548.8 470.7C594.7 470 640.3 446 686 432.8C731.7 419.7 777.3 417.3 823 413.8C868.7 410.3 914.3 405.7 937.2 403.3L960 401L960 541L937.2 541C914.3 541 868.7 541 823 541C777.3 541 731.7 541 686 541C640.3 541 594.7 541 548.8 541C503 541 457 541 411.2 541C365.3 541 319.7 541 274 541C228.3 541 182.7 541 137 541C91.3 541 45.7 541 22.8 541L0 541Z" fill="#f2f2f2"></path><path d="M0 427L22.8 435.7C45.7 444.3 91.3 461.7 137 477.2C182.7 492.7 228.3 506.3 274 499.3C319.7 492.3 365.3 464.7 411.2 458.5C457 452.3 503 467.7 548.8 474.7C594.7 481.7 640.3 480.3 686 481.8C731.7 483.3 777.3 487.7 823 482.8C868.7 478 914.3 464 937.2 457L960 450L960 541L937.2 541C914.3 541 868.7 541 823 541C777.3 541 731.7 541 686 541C640.3 541 594.7 541 548.8 541C503 541 457 541 411.2 541C365.3 541 319.7 541 274 541C228.3 541 182.7 541 137 541C91.3 541 45.7 541 22.8 541L0 541Z" fill="#ebebeb"></path></svg>