<svg id="visual" viewBox="0 0 322 973" width="322" height="973" xmlns="http://www.w3.org/2000/svg" xmlns:xlink="http://www.w3.org/1999/xlink" version="1.1"><path d="M0 176L13.5 177.7C27 179.3 54 182.7 80.8 179.5C107.7 176.3 134.3 166.7 161.2 148.8C188 131 215 105 241.8 96.8C268.7 88.7 295.3 98.3 308.7 103.2L322 108L322 0L308.7 0C295.3 0 268.7 0 241.8 0C215 0 188 0 161.2 0C134.3 0 107.7 0 80.8 0C54 0 27 0 13.5 0L0 0Z" fill="#421779"></path><path d="M0 497L13.5 476C27 455 54 413 80.8 403.3C107.7 393.7 134.3 416.3 161.2 419.5C188 422.7 215 406.3 241.8 399.8C268.7 393.3 295.3 396.7 308.7 398.3L322 400L322 106L308.7 101.2C295.3 96.3 268.7 86.7 241.8 94.8C215 103 188 129 161.2 146.8C134.3 164.7 107.7 174.3 80.8 177.5C54 180.7 27 177.3 13.5 175.7L0 174Z" fill="#541996"></path><path d="M0 653L13.5 648.2C27 643.3 54 633.7 80.8 646.7C107.7 659.7 134.3 695.3 161.2 701.8C188 708.3 215 685.7 241.8 659.7C268.7 633.7 295.3 604.3 308.7 589.7L322 575L322 398L308.7 396.3C295.3 394.7 268.7 391.3 241.8 397.8C215 404.3 188 420.7 161.2 417.5C134.3 414.3 107.7 391.7 80.8 401.3C54 411 27 453 13.5 474L0 495Z" fill="#6b2eae"></path><path d="M0 974L13.5 974C27 974 54 974 80.8 974C107.7 974 134.3 974 161.2 974C188 974 215 974 241.8 974C268.7 974 295.3 974 308.7 974L322 974L322 573L308.7 587.7C295.3 602.3 268.7 631.7 241.8 657.7C215 683.7 188 706.3 161.2 699.8C134.3 693.3 107.7 657.7 80.8 644.7C54 631.7 27 641.3 13.5 646.2L0 651Z" fill="#8550bf"></path></svg>